<svg width="400" height="400" viewBox="0 0 400 400" fill="none" xmlns="http://www.w3.org/2000/svg">
<path d="M156 267C158.333 278.167 158.2 303.6 139 316C119.8 328.4 96.3333 350.5 86.5 359.5C120.5 384 180.528 407.215 247 390C262.667 373.674 312.058 331.1 339.658 335.5C344.439 331.5 354.7 322 357.5 316C325.5 282.5 314.5 292.5 285.5 255.5C263.289 233.5 261.579 194 263.5 177M263.5 177C263.75 161 267.604 144.333 269.5 141M263.5 177C327.625 177 350.512 171.681 351.439 164.5M241.5 141C240.5 169.667 228.8 232.7 190 255.5C151.2 278.3 136.833 258.667 134.5 246C131 243.333 124.7 236.2 127.5 229M285.5 134.5C285.5 119.3 296.5 114.984 298 113C307.677 100.2 298.365 92.6667 292.5 90.5C238.5 69.7 167.667 71.1667 139 74.5C106.6 79.7 112.833 94 120 100.5C129.6 111.3 129 119.667 127.5 122.5M285.5 134.5C316.292 142.529 352.651 155.107 351.439 164.5M285.5 134.5C238.3 117.31 160.5 119.338 127.5 122.5M127.5 122.5C73.6844 133.301 60.7579 141.312 67.2133 147M131 158L127.5 167.5M131 158C105.476 156.772 74.3847 153.319 67.2133 147M131 158C135.5 154 146.5 151 165.5 158C161.1 161.6 158.667 165.833 158 167.5C152 162 140 162.5 127.5 167.5M127.5 167.5C39.5 188.7 21.3334 231.667 23 249M127.5 167.5C130.333 167.5 125.1 167.5 127.5 167.5ZM23 249C31 255.5 49 224.5 127.5 229M23 249C63.8001 209.4 112 204.5 131 207M127.5 229C191.5 261 218.5 181.667 224 138M67.2133 147C116.768 135.667 242.99 123.3 351.439 164.5" stroke="black" stroke-width="6"/>
<circle cx="179" cy="175" r="22" stroke="black" stroke-width="6"/>
<circle cx="200" cy="200" r="196" stroke="black" stroke-width="8"/>
</svg>
