<svg width="150" height="150" viewBox="0 0 150 150" fill="none" xmlns="http://www.w3.org/2000/svg">
<rect width="150" height="150" fill="#AD1209"/>
<path d="M23.6641 20.7734H28.125V22H22.2266V10.625H23.6641V20.7734ZM31.3281 22H29.8984V10.625H31.3281V22ZM40.9688 18.3906C40.9062 19.6094 40.5625 20.5417 39.9375 21.1875C39.3177 21.8333 38.4401 22.1562 37.3047 22.1562C36.1641 22.1562 35.2578 21.724 34.5859 20.8594C33.9141 19.9896 33.5781 18.8125 33.5781 17.3281V15.2656C33.5781 13.7865 33.9219 12.6172 34.6094 11.7578C35.3021 10.8984 36.2448 10.4688 37.4375 10.4688C38.5365 10.4688 39.3854 10.7995 39.9844 11.4609C40.5885 12.1172 40.9167 13.0573 40.9688 14.2812H39.5234C39.4609 13.3542 39.2656 12.6927 38.9375 12.2969C38.6094 11.901 38.1094 11.7031 37.4375 11.7031C36.6615 11.7031 36.0651 12.0078 35.6484 12.6172C35.2318 13.2214 35.0234 14.1094 35.0234 15.2812V17.3672C35.0234 18.5182 35.2161 19.401 35.6016 20.0156C35.9922 20.6302 36.5599 20.9375 37.3047 20.9375C38.0495 20.9375 38.5859 20.7526 38.9141 20.3828C39.2422 20.013 39.4453 19.349 39.5234 18.3906H40.9688ZM48.3672 16.7422H44.3438V20.7734H49.0312V22H42.9141V10.625H48.9531V11.8594H44.3438V15.5156H48.3672V16.7422ZM58.2656 17.3125C58.2656 18.8646 57.9349 20.0599 57.2734 20.8984C56.612 21.737 55.6719 22.1562 54.4531 22.1562C53.2812 22.1562 52.3542 21.75 51.6719 20.9375C50.9948 20.1198 50.6432 18.9661 50.6172 17.4766V15.3359C50.6172 13.8151 50.9531 12.625 51.625 11.7656C52.2969 10.901 53.2344 10.4688 54.4375 10.4688C55.6354 10.4688 56.5677 10.8828 57.2344 11.7109C57.9062 12.5339 58.25 13.7109 58.2656 15.2422V17.3125ZM56.8359 15.3203C56.8359 14.1172 56.638 13.224 56.2422 12.6406C55.8516 12.0521 55.25 11.7578 54.4375 11.7578C53.651 11.7578 53.0547 12.0547 52.6484 12.6484C52.2474 13.2422 52.0443 14.1172 52.0391 15.2734V17.3125C52.0391 18.474 52.2396 19.3594 52.6406 19.9688C53.0469 20.5781 53.651 20.8828 54.4531 20.8828C55.2552 20.8828 55.849 20.6016 56.2344 20.0391C56.6198 19.4766 56.8203 18.6146 56.8359 17.4531V15.3203ZM71.2656 20.5859L71.0156 20.8984C70.2969 21.737 69.2448 22.1562 67.8594 22.1562C66.6302 22.1562 65.6641 21.75 64.9609 20.9375C64.263 20.1198 63.9062 18.9661 63.8906 17.4766V15.2422C63.8906 13.6484 64.2083 12.4557 64.8438 11.6641C65.4844 10.8672 66.4401 10.4688 67.7109 10.4688C68.7943 10.4688 69.6406 10.7708 70.25 11.375C70.8646 11.9792 71.2031 12.8411 71.2656 13.9609H69.8359C69.7786 13.2526 69.5807 12.7005 69.2422 12.3047C68.9089 11.9036 68.401 11.7031 67.7188 11.7031C66.901 11.7031 66.3021 11.9714 65.9219 12.5078C65.5417 13.0391 65.3438 13.8906 65.3281 15.0625V17.3828C65.3281 18.5286 65.5469 19.4089 65.9844 20.0234C66.4219 20.6328 67.0495 20.9375 67.8672 20.9375C68.638 20.9375 69.224 20.75 69.625 20.375L69.8359 20.1797V17.5547H67.7578V16.3359H71.2656V20.5859ZM75.0938 22H73.6641V10.625H75.0938V22ZM85.0312 22H83.5938L79.0391 13.2344V22H77.6016V10.625H79.0391L83.6094 19.4297V10.625H85.0312V22ZM94.9375 22H93.5L88.9453 13.2344V22H87.5078V10.625H88.9453L93.5156 19.4297V10.625H94.9375V22ZM102.859 19.0312H99.0156L98.1328 22H96.6641L100.328 10.625H101.555L105.227 22H103.758L102.859 19.0312ZM99.3906 17.7969H102.492L100.938 12.625L99.3906 17.7969ZM111.742 19.125C111.742 18.5573 111.589 18.1224 111.281 17.8203C110.974 17.5182 110.419 17.224 109.617 16.9375C108.815 16.651 108.201 16.3516 107.773 16.0391C107.352 15.7214 107.034 15.362 106.82 14.9609C106.612 14.5547 106.508 14.0911 106.508 13.5703C106.508 12.6693 106.807 11.9271 107.406 11.3438C108.01 10.7604 108.799 10.4688 109.773 10.4688C110.44 10.4688 111.034 10.6198 111.555 10.9219C112.076 11.2188 112.477 11.6328 112.758 12.1641C113.039 12.6953 113.18 13.2786 113.18 13.9141H111.742C111.742 13.2109 111.573 12.6667 111.234 12.2812C110.896 11.8958 110.409 11.7031 109.773 11.7031C109.195 11.7031 108.747 11.8646 108.43 12.1875C108.112 12.5104 107.953 12.9635 107.953 13.5469C107.953 14.026 108.125 14.4271 108.469 14.75C108.812 15.0729 109.344 15.362 110.062 15.6172C111.182 15.987 111.982 16.4427 112.461 16.9844C112.945 17.526 113.188 18.2344 113.188 19.1094C113.188 20.0312 112.888 20.7708 112.289 21.3281C111.69 21.8802 110.875 22.1562 109.844 22.1562C109.182 22.1562 108.57 22.013 108.008 21.7266C107.451 21.4349 107.01 21.0286 106.688 20.5078C106.37 19.9818 106.211 19.3802 106.211 18.7031H107.648C107.648 19.4062 107.844 19.9531 108.234 20.3438C108.63 20.7344 109.167 20.9297 109.844 20.9297C110.474 20.9297 110.948 20.7682 111.266 20.4453C111.583 20.1224 111.742 19.6823 111.742 19.125ZM116.562 22H115.133V10.625H116.562V22ZM126.469 17.3125C126.469 18.8646 126.138 20.0599 125.477 20.8984C124.815 21.737 123.875 22.1562 122.656 22.1562C121.484 22.1562 120.557 21.75 119.875 20.9375C119.198 20.1198 118.846 18.9661 118.82 17.4766V15.3359C118.82 13.8151 119.156 12.625 119.828 11.7656C120.5 10.901 121.438 10.4688 122.641 10.4688C123.839 10.4688 124.771 10.8828 125.438 11.7109C126.109 12.5339 126.453 13.7109 126.469 15.2422V17.3125ZM125.039 15.3203C125.039 14.1172 124.841 13.224 124.445 12.6406C124.055 12.0521 123.453 11.7578 122.641 11.7578C121.854 11.7578 121.258 12.0547 120.852 12.6484C120.451 13.2422 120.247 14.1172 120.242 15.2734V17.3125C120.242 18.474 120.443 19.3594 120.844 19.9688C121.25 20.5781 121.854 20.8828 122.656 20.8828C123.458 20.8828 124.052 20.6016 124.438 20.0391C124.823 19.4766 125.023 18.6146 125.039 17.4531V15.3203Z" fill="white"/>
<path d="M31.0088 129.203V138.3C30.9971 139.513 30.6455 140.462 29.9541 141.147C29.2627 141.833 28.2988 142.176 27.0625 142.176C25.7969 142.176 24.8301 141.842 24.1621 141.174C23.4941 140.5 23.1543 139.542 23.1426 138.3V129.203H24.7422V138.238C24.7422 139.1 24.9238 139.744 25.2871 140.172C25.6562 140.594 26.248 140.805 27.0625 140.805C27.8828 140.805 28.4746 140.594 28.8379 140.172C29.207 139.744 29.3916 139.1 29.3916 138.238V129.203H31.0088ZM41.4941 140.409L41.2129 140.761C40.4043 141.704 39.2207 142.176 37.6621 142.176C36.2793 142.176 35.1924 141.719 34.4014 140.805C33.6162 139.885 33.2148 138.587 33.1973 136.911V134.397C33.1973 132.604 33.5547 131.263 34.2695 130.372C34.9902 129.476 36.0654 129.027 37.4951 129.027C38.7139 129.027 39.666 129.367 40.3516 130.047C41.043 130.727 41.4238 131.696 41.4941 132.956H39.8857C39.8213 132.159 39.5986 131.538 39.2178 131.093C38.8428 130.642 38.2715 130.416 37.5039 130.416C36.584 130.416 35.9102 130.718 35.4824 131.321C35.0547 131.919 34.832 132.877 34.8145 134.195V136.806C34.8145 138.095 35.0605 139.085 35.5527 139.776C36.0449 140.462 36.751 140.805 37.6709 140.805C38.5381 140.805 39.1973 140.594 39.6484 140.172L39.8857 139.952V136.999H37.5479V135.628H41.4941V140.409ZM52.4453 136.727C52.4453 138.473 52.0732 139.817 51.3291 140.761C50.585 141.704 49.5273 142.176 48.1562 142.176C46.8379 142.176 45.7949 141.719 45.0273 140.805C44.2656 139.885 43.8701 138.587 43.8408 136.911V134.503C43.8408 132.792 44.2188 131.453 44.9746 130.486C45.7305 129.514 46.7852 129.027 48.1387 129.027C49.4863 129.027 50.5352 129.493 51.2852 130.425C52.041 131.351 52.4277 132.675 52.4453 134.397V136.727ZM50.8369 134.485C50.8369 133.132 50.6143 132.127 50.1689 131.471C49.7295 130.809 49.0527 130.478 48.1387 130.478C47.2539 130.478 46.583 130.812 46.126 131.479C45.6748 132.147 45.4463 133.132 45.4404 134.433V136.727C45.4404 138.033 45.666 139.029 46.1172 139.715C46.5742 140.4 47.2539 140.743 48.1562 140.743C49.0586 140.743 49.7266 140.427 50.1602 139.794C50.5938 139.161 50.8193 138.191 50.8369 136.885V134.485ZM64.9961 136.349H60.6719V142H59.0635V129.203H65.7256V130.592H60.6719V134.969H64.9961V136.349ZM76.0352 136.727C76.0352 138.473 75.6631 139.817 74.9189 140.761C74.1748 141.704 73.1172 142.176 71.7461 142.176C70.4277 142.176 69.3848 141.719 68.6172 140.805C67.8555 139.885 67.46 138.587 67.4307 136.911V134.503C67.4307 132.792 67.8086 131.453 68.5645 130.486C69.3203 129.514 70.375 129.027 71.7285 129.027C73.0762 129.027 74.125 129.493 74.875 130.425C75.6309 131.351 76.0176 132.675 76.0352 134.397V136.727ZM74.4268 134.485C74.4268 133.132 74.2041 132.127 73.7588 131.471C73.3193 130.809 72.6426 130.478 71.7285 130.478C70.8438 130.478 70.1729 130.812 69.7158 131.479C69.2646 132.147 69.0361 133.132 69.0303 134.433V136.727C69.0303 138.033 69.2559 139.029 69.707 139.715C70.1641 140.4 70.8438 140.743 71.7461 140.743C72.6484 140.743 73.3164 140.427 73.75 139.794C74.1836 139.161 74.4092 138.191 74.4268 136.885V134.485ZM84.1123 138.766C84.1123 138.127 83.9395 137.638 83.5938 137.298C83.248 136.958 82.624 136.627 81.7217 136.305C80.8193 135.982 80.1279 135.646 79.6475 135.294C79.1729 134.937 78.8154 134.532 78.5752 134.081C78.3408 133.624 78.2236 133.103 78.2236 132.517C78.2236 131.503 78.5605 130.668 79.2344 130.012C79.9141 129.355 80.8018 129.027 81.8975 129.027C82.6475 129.027 83.3154 129.197 83.9014 129.537C84.4873 129.871 84.9385 130.337 85.2549 130.935C85.5713 131.532 85.7295 132.188 85.7295 132.903H84.1123C84.1123 132.112 83.9219 131.5 83.541 131.066C83.1602 130.633 82.6123 130.416 81.8975 130.416C81.2471 130.416 80.7432 130.598 80.3857 130.961C80.0283 131.324 79.8496 131.834 79.8496 132.49C79.8496 133.029 80.043 133.48 80.4297 133.844C80.8164 134.207 81.4141 134.532 82.2227 134.819C83.4824 135.235 84.3818 135.748 84.9209 136.357C85.4658 136.967 85.7383 137.764 85.7383 138.748C85.7383 139.785 85.4014 140.617 84.7275 141.244C84.0537 141.865 83.1367 142.176 81.9766 142.176C81.2324 142.176 80.5439 142.015 79.9111 141.692C79.2842 141.364 78.7891 140.907 78.4258 140.321C78.0684 139.729 77.8896 139.053 77.8896 138.291H79.5068C79.5068 139.082 79.7266 139.697 80.166 140.137C80.6113 140.576 81.2148 140.796 81.9766 140.796C82.6855 140.796 83.2188 140.614 83.5762 140.251C83.9336 139.888 84.1123 139.393 84.1123 138.766ZM95.8809 137.939C95.8105 139.311 95.4238 140.359 94.7207 141.086C94.0234 141.812 93.0361 142.176 91.7588 142.176C90.4756 142.176 89.4561 141.689 88.7002 140.717C87.9443 139.738 87.5664 138.414 87.5664 136.744V134.424C87.5664 132.76 87.9531 131.444 88.7266 130.478C89.5059 129.511 90.5664 129.027 91.9082 129.027C93.1445 129.027 94.0996 129.399 94.7734 130.144C95.4531 130.882 95.8223 131.939 95.8809 133.316H94.2549C94.1846 132.273 93.9648 131.529 93.5957 131.084C93.2266 130.639 92.6641 130.416 91.9082 130.416C91.0352 130.416 90.3643 130.759 89.8955 131.444C89.4268 132.124 89.1924 133.123 89.1924 134.441V136.788C89.1924 138.083 89.4092 139.076 89.8428 139.768C90.2822 140.459 90.9209 140.805 91.7588 140.805C92.5967 140.805 93.2002 140.597 93.5693 140.181C93.9385 139.765 94.167 139.018 94.2549 137.939H95.8809ZM106.393 136.727C106.393 138.473 106.021 139.817 105.276 140.761C104.532 141.704 103.475 142.176 102.104 142.176C100.785 142.176 99.7422 141.719 98.9746 140.805C98.2129 139.885 97.8174 138.587 97.7881 136.911V134.503C97.7881 132.792 98.166 131.453 98.9219 130.486C99.6777 129.514 100.732 129.027 102.086 129.027C103.434 129.027 104.482 129.493 105.232 130.425C105.988 131.351 106.375 132.675 106.393 134.397V136.727ZM104.784 134.485C104.784 133.132 104.562 132.127 104.116 131.471C103.677 130.809 103 130.478 102.086 130.478C101.201 130.478 100.53 130.812 100.073 131.479C99.6221 132.147 99.3936 133.132 99.3877 134.433V136.727C99.3877 138.033 99.6133 139.029 100.064 139.715C100.521 140.4 101.201 140.743 102.104 140.743C103.006 140.743 103.674 140.427 104.107 139.794C104.541 139.161 104.767 138.191 104.784 136.885V134.485ZM110.497 140.62H115.516V142H108.88V129.203H110.497V140.62ZM125.184 136.727C125.184 138.473 124.812 139.817 124.067 140.761C123.323 141.704 122.266 142.176 120.895 142.176C119.576 142.176 118.533 141.719 117.766 140.805C117.004 139.885 116.608 138.587 116.579 136.911V134.503C116.579 132.792 116.957 131.453 117.713 130.486C118.469 129.514 119.523 129.027 120.877 129.027C122.225 129.027 123.273 129.493 124.023 130.425C124.779 131.351 125.166 132.675 125.184 134.397V136.727ZM123.575 134.485C123.575 133.132 123.353 132.127 122.907 131.471C122.468 130.809 121.791 130.478 120.877 130.478C119.992 130.478 119.321 130.812 118.864 131.479C118.413 132.147 118.185 133.132 118.179 134.433V136.727C118.179 138.033 118.404 139.029 118.855 139.715C119.312 140.4 119.992 140.743 120.895 140.743C121.797 140.743 122.465 140.427 122.898 139.794C123.332 139.161 123.558 138.191 123.575 136.885V134.485Z" fill="white"/>
<path d="M27.75 121.189V28.8107L73.9393 75L27.75 121.189ZM28.8107 122.25L75 76.0607L121.189 122.25H28.8107ZM122.25 121.189L76.0607 75L122.25 28.8107V121.189ZM121.189 27.75L75 73.9393L28.8107 27.75H121.189Z" stroke="#FFAAAA" stroke-width="1.5"/>
<circle cx="75" cy="75" r="47.25" stroke="#FFAAAA" stroke-width="1.5"/>
<circle cx="42" cy="36" r="8.25" stroke="#FFAAAA" stroke-width="1.5"/>
<circle cx="95" cy="43" r="8.25" stroke="#FFAAAA" stroke-width="1.5"/>
<circle cx="72" cy="114" r="8.25" stroke="#FFAAAA" stroke-width="1.5"/>
<circle cx="41" cy="114" r="8.25" stroke="#FFAAAA" stroke-width="1.5"/>
<circle cx="86" cy="68" r="3.25" stroke="#FFAAAA" stroke-width="1.5"/>
<circle cx="86" cy="82" r="3.25" stroke="#FFAAAA" stroke-width="1.5"/>
<path d="M62.5 122.5H50.5H41.5C44.5 121.667 50.5 118.9 50.5 114.5V34C50.5 30.7146 43.5 27.5 39 27.5L62.5 27.5L103 27.5V38.3273C100 33.5 97.2653 34 93 34L62.5 34V72.5H75.5H86C87.1667 72.1667 89.5 71 89.5 69V72.5V77.5V80.5C89.3333 79.6667 88.4 77.9 86 77.5H75.5H62.5V114.5C63 118 66.8 122.5 72 122.5H62.5Z" fill="white"/>
<path d="M50.5 34C50.5 30.7146 43.5 27.5 39 27.5L62.5 27.5M50.5 34C50.5 34.7908 50.5 31.5 50.5 34ZM50.5 34C66 34 87.7388 34 93 34C97.2653 34 100 33.5 103 38.3273V27.5L62.5 27.5M50.5 34C50.5 39.4529 50.5 85.9278 50.5 114.5M50.5 122.5H62.5M50.5 122.5H41.5C44.5 121.667 50.5 118.9 50.5 114.5M50.5 122.5C50.5 120.053 50.5 117.367 50.5 114.5M62.5 122.5H72C66.8 122.5 63 118 62.5 114.5M62.5 122.5V114.5M62.5 27.5V72.5M62.5 72.5V77.5M62.5 72.5H75.5H86M62.5 77.5H75.5H86M62.5 77.5V114.5M86 72.5H89.5V77.5H86M86 72.5C87.1667 72.1667 89.5 71 89.5 69C89.5 67 89.5 75.8333 89.5 80.5C89.3333 79.6667 88.4 77.9 86 77.5" stroke="white"/>
</svg>
